# xmcd
#
# Track frame offsets:
#	150
#	12454
#	26398
#	37438
#	49492
#	61447
#	69868
#	81540
#	93596
#	104829
#	117329
#	130507
#	147800
#	161810
#	173702
#	185283
#	196422
#	208844
#	220467
#	236366
#	249184
#	259097
#	271295
#	281653
#	292498
#
# Disc length: 4061 seconds
#
# Revision: 0
# Processed by: cddbd v1.5.2PL0 Copyright (c) Steve Scherf et al.
# Submitted via: audiograbber 1.83.01
#
DISCID=8c0fdb19
DTITLE=Various Artist - The Story Of Vee-Jay [Disc 2]
DYEAR=2002
DGENRE=Blues
TTITLE0=John Lee Hooker - I'm In The Mood For Love
TTITLE1=Elmore James - 12 Year Old Boy
TTITLE2=Little Richard - Whole Lotta Shakin' Goin' On
TTITLE3=Jimmy Reed - Honest I Do
TTITLE4=Rosco Gordon - No More Doggin
TTITLE5=Dee Clark - Hey Little Girl
TTITLE6=Jerry Butler - Moon River
TTITLE7=Jerry Butler and Betty Everett - Let It Be Me
TTITLE8=El Dorados - I'll Be Forever Loving You
TTITLE9=Gene Chandler - Rainbow
TTITLE10=The Dells - Stay In My Corner
TTITLE11=The Original Blind Boys Of Alabama (feat. Clarence Fountain) - Preciou
TTITLE11=s Lord
TTITLE12=Swan Silvertones - Sinner Man
TTITLE13=Billy Boy Arnold - Rockin'itis
TTITLE14=Hank Ballard and The Midnighters - Twist
TTITLE15=John Lee Hooker - Boom Boom
TTITLE16=Jimmy Reed - Big Boss Man
TTITLE17=El Dorados - At My Front Door
TTITLE18=Memphis Slim - Mother Earth
TTITLE19=Staple Singers - If I Could Hear My Mother Pray
TTITLE20=Betty Everett - Getting Mighty Crowded
TTITLE21=Jerry Butler - Make It Easy On Yourself
TTITLE22=Fred Hughes - Oo Wee Baby, I Love You
TTITLE23=Dee Clark - Nobody But You
TTITLE24=The Spaniels - Goodnite, Sweetheart, Goodnite
EXTD=America's Premier Black Music Label
EXTT0=
EXTT1=
EXTT2=
EXTT3=
EXTT4=
EXTT5=
EXTT6=
EXTT7=
EXTT8=
EXTT9=
EXTT10=
EXTT11=
EXTT12=
EXTT13=
EXTT14=
EXTT15=
EXTT16=
EXTT17=
EXTT18=
EXTT19=
EXTT20=
EXTT21=
EXTT22=
EXTT23=
EXTT24=
PLAYORDER=
